<svg width="12" height="10" viewBox="0 0 13 10" fill="none" xmlns="http://www.w3.org/2000/svg">
<g clip-path="url(#clip0_1_158)">
<path fill-rule="evenodd" clip-rule="evenodd" d="M0.937866 5C0.937866 4.81059 1.01688 4.62895 1.15751 4.49502C1.29815 4.36109 1.48889 4.28584 1.68778 4.28584H10.3763L7.15617 1.22068C7.01536 1.08658 6.93625 0.904705 6.93625 0.715059C6.93625 0.525414 7.01536 0.343536 7.15617 0.209436C7.29699 0.0753365 7.48797 0 7.68711 0C7.88625 0 8.07724 0.0753365 8.21805 0.209436L12.7176 4.49438C12.7874 4.56072 12.8428 4.63952 12.8806 4.72629C12.9184 4.81305 12.9379 4.90606 12.9379 5C12.9379 5.09394 12.9184 5.18695 12.8806 5.27371C12.8428 5.36048 12.7874 5.43928 12.7176 5.50562L8.21805 9.79056C8.07724 9.92466 7.88625 10 7.68711 10C7.48797 10 7.29699 9.92466 7.15617 9.79056C7.01536 9.65646 6.93625 9.47459 6.93625 9.28494C6.93625 9.0953 7.01536 8.91342 7.15617 8.77932L10.3763 5.71416H1.68778C1.48889 5.71416 1.29815 5.63892 1.15751 5.50499C1.01688 5.37106 0.937866 5.18941 0.937866 5Z" fill="#014C98"/>
</g>
<defs>
<clipPath id="clip0_1_158">
<rect width="12" height="10" fill="white" transform="translate(0.937866)"/>
</clipPath>
</defs>
</svg>
